<?xml version="1.0" encoding="UTF-8"?>
<svg width="192" height="192" viewBox="0 0 192 192" xmlns="http://www.w3.org/2000/svg">
  <defs>
    <!-- Background Gradient -->
    <linearGradient id="bg" x1="0%" y1="0%" x2="100%" y2="100%">
      <stop offset="0%" style="stop-color:#0D47A1"/>
      <stop offset="50%" style="stop-color:#1976D2"/>
      <stop offset="100%" style="stop-color:#42A5F5"/>
    </linearGradient>
  </defs>
  
  <!-- Background -->
  <rect width="192" height="192" rx="24" fill="url(#bg)"/>
  
  <!-- Penguin Body -->
  <ellipse cx="96" cy="110" rx="28" ry="42" fill="#2C2C2C"/>
  
  <!-- Penguin Belly -->
  <ellipse cx="96" cy="110" rx="20" ry="32" fill="#FFFFFF"/>
  
  <!-- Penguin Head -->
  <circle cx="96" cy="70" r="24" fill="#2C2C2C"/>
  
  <!-- Penguin Eyes -->
  <circle cx="88" cy="65" r="4" fill="#FFFFFF"/>
  <circle cx="104" cy="65" r="4" fill="#FFFFFF"/>
  <circle cx="89" cy="65" r="2" fill="#000000"/>
  <circle cx="103" cy="65" r="2" fill="#000000"/>
  
  <!-- Penguin Beak -->
  <path d="M96,72 L92,78 L100,78 Z" fill="#FF9800"/>
  
  <!-- Penguin Wings -->
  <ellipse cx="75" cy="100" rx="8" ry="20" fill="#1C1C1C"/>
  <ellipse cx="117" cy="100" rx="8" ry="20" fill="#1C1C1C"/>
  
  <!-- SMS Bubble -->
  <circle cx="130" cy="50" r="18" fill="#4CAF50"/>
  <path d="M130,40 L125,35 L135,35 Z" fill="#4CAF50"/>
  
  <!-- SMS Lines -->
  <rect x="125" y="45" width="10" height="2" rx="1" fill="#FFFFFF"/>
  <rect x="125" y="49" width="8" height="2" rx="1" fill="#FFFFFF"/>
  <rect x="125" y="53" width="6" height="2" rx="1" fill="#FFFFFF"/>
  
  <!-- Email Icon -->
  <rect x="125" y="130" width="20" height="14" rx="2" fill="#2196F3"/>
  <path d="M125,132 L135,138 L145,132 L145,134 L135,140 L125,134 Z" fill="#1976D2"/>
  
  <!-- Arrow -->
  <path d="M140,85 L148,93 L140,101 L142,101 L150,93 L142,85 Z" fill="#FF5722"/>
  <rect x="120" y="91" width="28" height="4" rx="2" fill="#FF5722"/>
</svg>
